<?xml version="1.0" encoding="utf-8"?>
<!-- Generator: Adobe Illustrator 18.1.1, SVG Export Plug-In . SVG Version: 6.00 Build 0)  -->
<!DOCTYPE svg PUBLIC "-//W3C//DTD SVG 1.1//EN" "http://www.w3.org/Graphics/SVG/1.1/DTD/svg11.dtd">
<svg version="1.1" id="Layer_2" xmlns="http://www.w3.org/2000/svg" xmlns:xlink="http://www.w3.org/1999/xlink" x="0px" y="0px"
	 viewBox="0 0 16 16" enable-background="new 0 0 16 16" xml:space="preserve">
<g id="Layer_1">
	<g id="Layer_4">
		<g>
			<g id="vBHR6S.tif">
				
					<image overflow="visible" enable-background="new    " width="186" height="109" id="Layer_0_2_" xlink:href="A760EDDFC7AB4BFD.png"  transform="matrix(6.365592e-02 0 0 6.341285e-02 2.2063 4.7328)">
				</image>
			</g>
			<g>
				<g>
					<path d="M4.8,10.4c0.4,0,0.8,0,1.2,0c0.1,0,0.1-0.2,0-0.2c-0.4,0-0.8,0-1.2,0C4.7,10.2,4.7,10.4,4.8,10.4L4.8,10.4z"/>
				</g>
			</g>
			<g>
				<g>
					<path d="M4.9,10.5c0.3,0,0.6,0,0.9,0c0-0.1,0-0.1,0-0.2c-1,0-2,0-3.1,0c-0.1,0-0.1,0.2,0,0.2c1,0,2,0,3.1,0
						c0.1,0,0.1-0.2,0-0.2c-0.3,0-0.6,0-0.9,0C4.7,10.4,4.7,10.5,4.9,10.5L4.9,10.5z"/>
				</g>
			</g>
			<g>
				<g>
					<path d="M5,10.2c0.3,0,0.7,0,1,0c0.1,0,0.1-0.2,0-0.2c-0.1,0-0.1,0-0.2,0c-0.1,0-0.1,0.2,0,0.2c0.1,0,0.1,0,0.2,0
						c0-0.1,0-0.1,0-0.2c-0.3,0-0.7,0-1,0C4.9,10.1,4.9,10.2,5,10.2L5,10.2z"/>
				</g>
			</g>
			<g>
				<g>
					<path d="M5.5,9.4c0,0.2,0,0.3,0,0.5c0.1,0,0.1,0,0.2,0c0-0.1-0.1-0.2-0.2-0.1C5.3,9.8,5.4,10,5.1,9.9c0,0,0,0,0.1,0.1
						c0-0.1,0.1-0.2,0.2-0.2c0.1-0.1,0.2-0.1,0.3-0.2c0.1,0,0.2-0.1,0.2-0.1C5.9,9.4,6,9.3,6.1,9.2c0,0-0.1-0.1-0.1-0.1
						c0,0.1-0.2,0.2-0.2,0.2C5.7,9.4,5.7,9.5,5.6,9.6C5.5,9.7,5.4,10,5.3,10.2c0.1,0,0.1,0,0.2,0.1c0-0.2,0-0.4,0.1-0.5
						c-0.1,0-0.1-0.1-0.2-0.1C5.3,9.7,5.2,9.9,5.2,10c-0.1,0.1,0.1,0.2,0.2,0.1C5.4,10,5.5,10,5.6,10c0.1,0,0.1,0.1,0.1,0.2
						c0.1,0.1,0.2,0.1,0.2,0C6.2,10,6.1,9.5,6.1,9.3c0-0.1-0.2-0.1-0.2,0c0,0.2,0,0.5-0.1,0.7c0.1,0,0.1,0,0.2,0c0-0.2,0-0.3,0-0.5
						c0-0.1-0.2-0.1-0.2,0c0,0.2-0.1,0.4-0.2,0.5c0.1,0,0.1,0.1,0.2,0.1c0-0.1,0.1-0.2,0.1-0.4c0.1-0.1-0.1-0.2-0.2-0.1
						C5.6,9.8,5.5,10,5.4,10.1c0.1,0,0.1,0.1,0.2,0.1c0-0.1,0-0.1,0-0.1c0-0.1-0.1-0.2-0.2-0.1c0,0,0,0.1,0,0.1
						c0,0.1,0.1,0.2,0.2,0.1c0.1-0.1,0.2-0.2,0.2-0.4c-0.1,0-0.1-0.1-0.2-0.1C5.6,9.8,5.5,10,5.5,10.1c0,0.1,0.1,0.2,0.2,0.1
						C5.8,10,5.9,9.8,5.9,9.6c-0.1,0-0.1,0-0.2,0c0,0.2,0,0.3,0,0.5c0,0.1,0.2,0.1,0.2,0C6,9.9,6.1,9.6,6.1,9.4c-0.1,0-0.1,0-0.2,0
						C5.9,9.5,6,9.7,5.9,9.9c-0.1,0.2-0.1,0-0.2-0.1c-0.2-0.1-0.5,0-0.6,0.1c0.1,0,0.1,0.1,0.2,0.1C5.4,10,5.5,9.8,5.6,9.7
						c0.1-0.1-0.1-0.2-0.2-0.1C5.3,9.8,5.3,10,5.3,10.2c0,0.1,0.1,0.1,0.2,0.1C5.6,10,5.6,9.8,5.8,9.6C6,9.5,6.2,9.4,6.2,9.2
						c0-0.1,0-0.1-0.1-0.1C6,9.1,6,9.1,5.9,9.2C5.8,9.3,5.7,9.3,5.5,9.4C5.3,9.5,5.1,9.7,5,9.9c-0.1,0.2,0,0.2,0.2,0.3
						c0.1,0,0.4-0.1,0.3-0.3c0,0.1,0.2,0.1,0.2,0c0-0.2,0-0.3,0-0.5C5.7,9.2,5.5,9.2,5.5,9.4L5.5,9.4z"/>
				</g>
			</g>
			<g>
				<g>
					<path d="M6.8,9.9c-0.2-0.3-0.6-1.2-1.1-1C5.1,9.1,6.3,9.7,6.4,9.8c0.1,0.1,0.2-0.1,0.1-0.2c-0.3-0.2-0.6-0.5-1-0.7
						C5.5,8.9,5.4,9,5.4,9c0,0.3,0.1,0.5,0.3,0.8c0.1,0.1,0.2,0,0.2-0.1C5.8,9.5,5.7,9.3,5.5,9.1c-0.1,0-0.1,0-0.2,0
						c-0.1,0.2,0,0.4,0.1,0.5c0.1,0.1,0.2,0,0.2-0.1c0-0.2-0.1-0.5-0.4-0.4C5,9.3,5.1,9.7,5.2,9.8c0,0,0.1,0,0.2,0
						c0.1-0.2,0-0.6-0.3-0.6C5,9.2,4.9,9.3,4.8,9.4c-0.1,0.1-0.1,0.5,0,0.7c0.2,0.2,0.6,0,0.6-0.2c0-0.3-0.4-0.5-0.6-0.3
						c-0.1,0-0.1,0.1-0.1,0.2C4.6,9.8,4.5,10,4.3,9.7c0-0.1,0-0.2,0-0.2c0-0.1-0.1-0.3-0.2-0.4c-0.3,0-0.6,0.6-0.4,0.8
						c0.1,0.3,0.4,0.2,0.5-0.1C4.1,9.6,4,9,3.7,9.1C3.5,9.2,2.9,9.9,3.3,10C3.6,10,3.8,9.3,3.6,9.1c0,0-0.1,0-0.1,0
						C3.3,9.1,3,9.7,3.2,9.9c0.3,0.4,0.5-0.2,0.6-0.4c0.1-0.1-0.1-0.2-0.2-0.1c0,0-0.1,0.2-0.1,0.2C3.2,9.9,3.4,9.4,3.5,9.4
						c0-0.1,0-0.1,0-0.1c0,0.1,0,0.1,0,0.2c0,0,0,0.1,0,0.1c0,0.1,0,0.1,0.1,0c0.1-0.1,0.2-0.4,0.4,0c0,0.1,0.1,0.5-0.1,0.2
						c-0.1-0.1-0.1-0.2,0-0.2c0-0.1,0.1-0.1,0.2,0c0.1,0.1,0.1,0.1,0.1,0.2c0,0.2,0.2,0.4,0.4,0.3c0.1,0,0.2-0.1,0.3-0.2
						c0,0,0,0,0.1-0.1C4.9,9.9,5,10,5,9.9c0-0.1,0-0.1,0-0.2c0-0.3,0.1-0.3,0.2,0c0.1,0,0.1,0,0.2,0c-0.1-0.1,0-0.4,0.1-0.1
						c0.1,0,0.1,0,0.2-0.1c0-0.1-0.1-0.2-0.1-0.3c-0.1,0-0.1,0-0.2,0c0.2,0.1,0.3,0.3,0.4,0.5c0.1,0,0.1-0.1,0.2-0.1
						C5.7,9.5,5.7,9.3,5.6,9c0,0-0.1,0.1-0.1,0.1c0.3,0.2,0.6,0.5,1,0.7c0-0.1,0.1-0.1,0.1-0.2C6.4,9.5,6.2,9.4,6.1,9.4
						C6,9.3,6,9.3,5.9,9.2c-0.1-0.2,0-0.2,0.2,0C6.3,9.4,6.4,9.7,6.6,10C6.7,10.1,6.8,10,6.8,9.9L6.8,9.9z"/>
				</g>
			</g>
			<g>
				<g>
					<path d="M6.1,9.1c0.2,0.2,0.4,0.4,0.5,0.5c0.1,0.1,0.2,0,0.2-0.1C6.7,9.3,6.4,9.1,6.2,8.8C6.2,8.9,6.1,8.9,6.1,9
						c0.2,0.1,0.4,0.3,0.5,0.5c0,0,0.1,0.1,0.1,0.2c0,0.1-0.1,0.1-0.1,0.1C6.4,9.8,6.2,9.8,6.1,9.9c-0.1,0.1,0,0.2,0.1,0.2
						C6.4,10,6.6,9.9,6.8,9.8c0.1-0.1,0.1-0.1,0.1-0.2C6.7,9.2,6.5,9,6.2,8.8C6.2,8.8,6,8.8,6.1,8.9c0.2,0.2,0.4,0.4,0.5,0.7
						c0.1,0,0.1-0.1,0.2-0.1C6.6,9.3,6.4,9.2,6.2,9C6.1,8.9,6,9,6.1,9.1L6.1,9.1z"/>
				</g>
			</g>
			<g>
				<g>
					<path d="M6.3,9c0.2,0.2,0.3,0.3,0.4,0.6c0.1,0.1,0.2,0,0.2-0.1C6.8,9.2,6.6,9,6.4,8.9C6.3,8.8,6.2,8.9,6.3,9L6.3,9z"/>
				</g>
			</g>
			<g>
				<g>
					<path d="M6.9,9.4C6.7,9.1,6.4,8.8,6.1,8.6C6,8.5,5.9,8.7,6,8.8C6.3,9,6.6,9.2,6.7,9.5C6.8,9.6,7,9.5,6.9,9.4L6.9,9.4z"/>
				</g>
			</g>
			<g>
				<g>
					<path d="M6,8.7c0.3,0.1,0.6,0.5,0.7,0.8c0,0.1,0.2,0.1,0.2,0c0-0.3-0.3-0.6-0.5-0.8c-0.3-0.2-0.7-0.4-1-0.4
						c-0.1,0-0.1,0.2,0,0.2c0.3,0,0.5,0.1,0.8,0.3c0.2,0.1,0.6,0.5,0.5,0.7c0.1,0,0.1,0,0.2,0C6.7,9.1,6.4,8.6,6.1,8.5
						C6,8.5,5.9,8.7,6,8.7L6,8.7z"/>
				</g>
			</g>
			<g>
				<g>
					<path d="M10.8,8.3c-0.3,0-0.5,0.2-0.8,0.4C9.7,8.9,9.4,9.1,9.3,9.4C9.2,9.5,9.4,9.6,9.4,9.5C9.6,9.3,9.8,9.1,10,8.9
						c0.2-0.2,0.5-0.4,0.8-0.4C10.9,8.5,10.9,8.3,10.8,8.3L10.8,8.3z"/>
				</g>
			</g>
			<g>
				<g>
					<path d="M10.8,8.8c0.1,0,0.1-0.2,0-0.2C10.7,8.6,10.7,8.8,10.8,8.8L10.8,8.8z"/>
				</g>
			</g>
			<g>
				<g>
					<path d="M10.2,9.1c0,0.2,0,0.4,0,0.6c0,0.1,0.1,0.1,0.2,0.1c0.2-0.1,0.2-0.4,0.1-0.6c-0.1-0.1-0.4-0.2-0.5,0
						C9.8,9.4,9.9,9.5,10,9.6c0.2,0,0.4-0.2,0.5-0.4c0-0.1,0-0.1-0.1-0.1c-0.4-0.1-0.6,0.4-0.7,0.6c0,0.1,0.1,0.2,0.2,0.1
						c0.1-0.2,0.4-0.5,0.4-0.7c0,0,0-0.1-0.1-0.1C10.1,8.9,10,9,9.9,9.1C9.7,9.2,9.6,9.4,9.5,9.5C9.4,9.6,9.5,9.7,9.6,9.7
						c0.1-0.1,0.7-0.6,0.4-0.7C9.8,8.8,9.4,9.5,9.4,9.6c0,0.1,0,0.2,0.1,0.1c0.3-0.2,0.6-0.3,0.9-0.4c0-0.1-0.1-0.1-0.1-0.2
						C9.9,9.3,9.6,9.6,9.4,10c0,0.1,0.1,0.2,0.1,0.1c0.3-0.2,0.7-0.5,1-0.6c0-0.1-0.1-0.1-0.1-0.2c-0.3,0.2-0.7,0.3-0.9,0.6
						c-0.1,0.1,0.1,0.2,0.1,0.1c0.3-0.1,0.6-0.3,0.9-0.4c0-0.1-0.1-0.1-0.1-0.2c-0.2,0.1-0.4,0.2-0.6,0.4C9.9,9.9,9.8,10,9.7,10.1
						c0,0.1,0,0.2,0.1,0.1c0.3-0.1,0.6-0.3,1-0.4c0.1,0,0.1-0.2-0.1-0.2c-0.3,0.1-0.7,0.2-0.8,0.5c0,0,0,0.1,0.1,0.1
						c0.2,0,0.4-0.1,0.6-0.1C10.8,10,11,10,11.3,9.9c0.1,0,0.1-0.2-0.1-0.2c-0.4,0.1-0.7,0.2-1,0.4c0,0,0,0.1,0,0.1
						c0.1,0.1,0.1,0.1,0.2,0.1c0.2,0,0.5,0,0.8,0c0.1,0,0.1-0.2,0-0.2c-0.1,0-0.7,0.1-0.9,0c0,0,0,0.1,0,0.1
						c0.3-0.2,0.6-0.3,0.9-0.4c0-0.1,0-0.1-0.1-0.2c-0.2,0.1-0.4,0.2-0.6,0.2c-0.2,0.1-0.4,0.2-0.6,0.2c0,0,0,0.1,0.1,0.1
						c0.1-0.2,0.5-0.3,0.7-0.4c0-0.1,0-0.1-0.1-0.2c-0.3,0.1-0.6,0.3-1,0.4c0,0,0.1,0.1,0.1,0.1c0.1-0.1,0.3-0.2,0.4-0.3
						c0.1-0.1,0.3-0.2,0.4-0.3c0.1-0.1,0-0.2-0.1-0.2c-0.3,0.1-0.6,0.3-0.9,0.4c0,0,0.1,0.1,0.1,0.1c0.2-0.3,0.6-0.4,0.9-0.5
						c0.1-0.1,0-0.2-0.1-0.2c-0.4,0.2-0.7,0.4-1.1,0.6c0,0,0.1,0.1,0.1,0.1c0.2-0.3,0.5-0.6,0.9-0.7c0.1,0,0-0.2-0.1-0.2
						c-0.4,0.1-0.7,0.2-1,0.4c0,0,0.1,0.1,0.1,0.1c0-0.1,0.1-0.2,0.1-0.3c0.1-0.1,0.2-0.2,0.2-0.3c0.1-0.3-0.1,0-0.2,0.1
						C9.6,9.4,9.6,9.5,9.5,9.5c0.1,0,0.1,0.1,0.2,0.1C9.7,9.5,9.8,9.4,10,9.3C10,9.2,10.2,9.1,10.2,9.1C10.2,9.1,10.2,9,10.2,9.1
						c-0.1,0.1-0.3,0.4-0.4,0.6c0.1,0,0.1,0.1,0.2,0.1c0-0.1,0.2-0.6,0.5-0.5c0,0,0-0.1-0.1-0.1c0,0.1-0.1,0.2-0.2,0.2
						c-0.2,0.1-0.1,0.2,0,0.4c0.1,0,0.1,0,0.2,0.1c0-0.2,0-0.4,0-0.6C10.4,9,10.2,9,10.2,9.1L10.2,9.1z"/>
				</g>
			</g>
			<g>
				<g>
					<path d="M11.3,9.9c-0.3,0-0.6,0-0.9,0c0,0.1,0,0.1,0,0.2c0.2-0.1,0.5-0.1,0.7-0.1c0-0.1,0-0.1-0.1-0.2C10.9,10,10.7,10,10.5,10
						c-0.1,0-0.1,0.1,0,0.2c0.3,0.1,0.5-0.3,0.5-0.5c0.1-0.3-0.3-0.3-0.4-0.1c0,0,0,0.1,0,0.1c0.1,0.1,0.2,0.1,0.3,0
						c0.1-0.1,0.1-0.2,0-0.2c-0.2-0.1-0.5,0.4-0.6,0.6c0,0.1,0.1,0.2,0.2,0.1c0.1-0.1,0.2-0.2,0.2-0.3c0-0.1,0-0.1-0.1-0.1
						c-0.2,0-0.2,0.2-0.4,0.2c0,0,0.1,0.1,0.1,0.1c0-0.1,0.1-0.1,0.1-0.2c0.1-0.1-0.1-0.2-0.2-0.1c0,0.1-0.1,0.1-0.1,0.2
						c0,0.1,0,0.2,0.1,0.1c0.2,0,0.2-0.2,0.4-0.2c0,0-0.1-0.1-0.1-0.1c0,0.1-0.1,0.2-0.1,0.2c0.1,0,0.1,0.1,0.2,0.1
						c0-0.1,0.2-0.4,0.3-0.4c0,0-0.1,0-0.1,0c0,0,0-0.1,0-0.1c0,0,0,0.1,0,0.1c0,0,0,0,0,0c0,0,0,0.1-0.1,0.1c0,0-0.1,0.2-0.2,0.2
						c0,0.1,0,0.1,0,0.2C10.7,10.2,11,10.2,11.3,9.9c0,0,0-0.1-0.1-0.1c-0.3,0-0.5,0-0.8,0.1c-0.1,0-0.1,0.2,0,0.2
						c0.3,0,0.6,0,0.9,0C11.4,10.1,11.4,9.9,11.3,9.9L11.3,9.9z"/>
				</g>
			</g>
			<g>
				<g>
					<path d="M6.2,9.9C6.2,9.7,6.2,9.6,6.2,9.5c-0.1,0-0.1,0-0.2,0.1C6.1,9.7,6.2,9.8,6.2,9.9c0.1,0.1,0.2,0,0.2-0.1
						C6.4,9.7,6.3,9.6,6.2,9.5C6,9.5,6,9.6,6.1,9.7C6.2,9.7,6.2,9.8,6.2,9.9c0.1,0,0.1-0.1,0.2-0.1C6.3,9.7,6.2,9.5,6.2,9.4
						C6.1,9.4,6,9.4,6,9.5c0,0.1,0,0.3,0.1,0.4C6.1,10,6.3,10,6.2,9.9L6.2,9.9z"/>
				</g>
			</g>
			<g>
				<g>
					<path d="M5.3,8.4c0,0,0.1,0,0.1,0c0.1,0.1,0.2-0.1,0.1-0.2c-0.1-0.1-0.2-0.1-0.3,0c-0.1,0-0.1,0.1-0.1,0.1
						C5.2,8.4,5.2,8.4,5.3,8.4L5.3,8.4z"/>
				</g>
			</g>
			<g>
				<g>
					<path d="M5.3,8.2c-0.1,0-0.1,0-0.2,0c0,0.1,0,0.1,0,0.2c0.1,0,0.1,0,0.2,0C5.4,8.4,5.4,8.2,5.3,8.2c-0.1,0-0.1,0-0.2,0
						C5,8.2,5,8.3,5,8.3c0,0.1,0,0.1,0.1,0.1c0.1,0,0.1,0,0.2,0C5.3,8.4,5.4,8.4,5.3,8.2C5.4,8.3,5.3,8.2,5.3,8.2L5.3,8.2z"/>
				</g>
			</g>
			<g>
				<g>
					<path d="M11.1,8.2c-0.2,0-0.4,0-0.5,0.1c-0.1,0.1,0,0.2,0.1,0.2c0.1-0.1,0.3-0.1,0.4-0.1C11.2,8.4,11.2,8.2,11.1,8.2L11.1,8.2z
						"/>
				</g>
			</g>
			<g>
				<g>
					<path d="M11.3,8.3c-0.1-0.1-0.2-0.1-0.3,0c-0.1,0-0.1,0.2,0.1,0.2c0.1,0,0.1,0,0.2,0C11.3,8.5,11.4,8.3,11.3,8.3L11.3,8.3z"/>
				</g>
			</g>
			<g>
				<g>
					<path d="M9.4,9.4c0.3-0.5,0.8-0.9,1.4-1c0.1,0,0.1-0.2-0.1-0.2c-0.6,0.2-1.1,0.6-1.5,1.1C9.2,9.4,9.4,9.5,9.4,9.4L9.4,9.4z"/>
				</g>
			</g>
			<g>
				<g>
					<path d="M9,10.2c0.1,0,0.1-0.2,0-0.2C8.8,10,8.8,10.2,9,10.2L9,10.2z"/>
				</g>
			</g>
			<g>
				<g>
					<path d="M10.4,10.5c0.4,0,0.7,0,1.1,0c0.1,0,0.1-0.2,0-0.2c-0.4,0-0.7,0-1.1,0C10.3,10.3,10.3,10.5,10.4,10.5L10.4,10.5z"/>
				</g>
			</g>
			<g>
				<g>
					<path d="M11.3,10.2c-0.3,0-0.7,0.1-1,0.1c-0.1,0-0.1,0.2,0.1,0.2c0.3-0.1,0.6-0.1,0.9-0.1C11.4,10.4,11.4,10.2,11.3,10.2
						L11.3,10.2z"/>
				</g>
			</g>
			<g>
				<g>
					<path d="M10.5,10.5c0.5,0,0.9,0,1.4,0c0.1,0,0.1-0.2,0-0.2c-0.5,0-0.9,0-1.4,0C10.3,10.3,10.3,10.5,10.5,10.5L10.5,10.5z"/>
				</g>
			</g>
			<g>
				<g>
					<path d="M10.5,10.6c1,0,2.1,0,3.1,0c0.1,0,0.1-0.2,0-0.2c-1,0-2.1,0-3.1,0C10.4,10.4,10.4,10.6,10.5,10.6L10.5,10.6z"/>
				</g>
			</g>
		</g>
	</g>
	<path fill="none" stroke="#000000" stroke-width="0.1" stroke-miterlimit="10" d="M11.1,10.1c0,0-0.1,0-0.1,0
		C11,10.1,11,10.1,11.1,10.1c-0.1,0-0.2,0-0.2,0C10.9,10.2,11,10.2,11.1,10.1c-0.1,0-0.2-0.1-0.2,0C10.9,10.1,11,10.1,11.1,10.1
		c-0.1,0.1-0.1,0.1-0.2,0"/>
</g>
</svg>
